<mxfile host="app.diagrams.net" agent="Mozilla/5.0 (Windows NT 10.0; Win64; x64) AppleWebKit/537.36 (KHTML, like Gecko) Chrome/130.0.0.0 Safari/537.36" version="24.8.6">
  <diagram name="Page-1" id="b5b7bab2-c9e2-2cf4-8b2a-24fd1a2a6d21">
    <mxGraphModel dx="1434" dy="738" grid="1" gridSize="10" guides="1" tooltips="1" connect="1" arrows="1" fold="1" page="1" pageScale="1" pageWidth="827" pageHeight="1169" background="none" math="0" shadow="0">
      <root>
        <mxCell id="0" />
        <mxCell id="1" parent="0" />
        <mxCell id="sCBt6ju_RTLveq3hWhfe-1" style="edgeStyle=elbowEdgeStyle;rounded=0;html=1;entryX=0.559;entryY=0.251;entryPerimeter=0;dashed=1;labelBackgroundColor=none;startFill=0;endArrow=open;endFill=0;endSize=10;fontFamily=Verdana;fontSize=10;" edge="1" parent="1">
          <mxGeometry relative="1" as="geometry">
            <mxPoint x="1064.5" y="1614.5" as="sourcePoint" />
          </mxGeometry>
        </mxCell>
        <mxCell id="sCBt6ju_RTLveq3hWhfe-2" style="edgeStyle=none;rounded=0;html=1;dashed=1;labelBackgroundColor=none;startFill=0;endArrow=open;endFill=0;endSize=10;fontFamily=Verdana;fontSize=10;entryX=-0.003;entryY=0.411;entryPerimeter=0;" edge="1" parent="1">
          <mxGeometry relative="1" as="geometry">
            <mxPoint x="1094.2069425189293" y="1614.5" as="sourcePoint" />
          </mxGeometry>
        </mxCell>
        <mxCell id="sCBt6ju_RTLveq3hWhfe-3" style="edgeStyle=none;rounded=0;html=1;dashed=1;labelBackgroundColor=none;startFill=0;endArrow=open;endFill=0;endSize=10;fontFamily=Verdana;fontSize=10;entryX=1.013;entryY=0.444;entryPerimeter=0;" edge="1" parent="1">
          <mxGeometry relative="1" as="geometry">
            <mxPoint x="1019.6881765195672" y="1614.5" as="sourcePoint" />
          </mxGeometry>
        </mxCell>
        <mxCell id="sCBt6ju_RTLveq3hWhfe-29" value="" style="shape=cube;whiteSpace=wrap;html=1;boundedLbl=1;backgroundOutline=1;darkOpacity=0.05;darkOpacity2=0.1;size=10;fillColor=#dae8fc;strokeColor=#6c8ebf;" vertex="1" parent="1">
          <mxGeometry x="370" y="1225" width="250" height="180" as="geometry" />
        </mxCell>
        <mxCell id="sCBt6ju_RTLveq3hWhfe-30" value="&amp;lt;&amp;lt; device &amp;gt;&amp;gt;&lt;div&gt;&lt;div&gt;&lt;b&gt;Personal computer&lt;/b&gt;&lt;/div&gt;&lt;/div&gt;" style="text;html=1;align=center;verticalAlign=middle;whiteSpace=wrap;rounded=0;fontSize=16;" vertex="1" parent="1">
          <mxGeometry x="412.5" y="1245" width="175" height="30" as="geometry" />
        </mxCell>
        <mxCell id="sCBt6ju_RTLveq3hWhfe-31" value="&amp;lt;&amp;lt; web browser &amp;gt;&amp;gt;" style="shape=cube;whiteSpace=wrap;html=1;boundedLbl=1;backgroundOutline=1;darkOpacity=0.05;darkOpacity2=0.1;size=10;" vertex="1" parent="1">
          <mxGeometry x="423.75" y="1295" width="152.5" height="80" as="geometry" />
        </mxCell>
        <mxCell id="sCBt6ju_RTLveq3hWhfe-32" style="edgeStyle=none;curved=0;rounded=0;orthogonalLoop=1;jettySize=auto;html=1;exitX=-0.001;exitY=0.52;exitDx=0;exitDy=0;exitPerimeter=0;entryX=1;entryY=0.75;entryDx=0;entryDy=0;fontSize=12;startSize=8;endSize=8;strokeWidth=3;" edge="1" parent="1" source="sCBt6ju_RTLveq3hWhfe-33" target="sCBt6ju_RTLveq3hWhfe-45">
          <mxGeometry relative="1" as="geometry">
            <Array as="points">
              <mxPoint x="675" y="1480" />
              <mxPoint x="675" y="1740" />
            </Array>
          </mxGeometry>
        </mxCell>
        <mxCell id="sCBt6ju_RTLveq3hWhfe-33" value="" style="shape=cube;whiteSpace=wrap;html=1;boundedLbl=1;backgroundOutline=1;darkOpacity=0.05;darkOpacity2=0.1;size=10;fillColor=#dae8fc;strokeColor=#6c8ebf;" vertex="1" parent="1">
          <mxGeometry x="755" y="1100" width="405" height="730" as="geometry" />
        </mxCell>
        <mxCell id="sCBt6ju_RTLveq3hWhfe-34" value="&amp;lt;&amp;lt; device &amp;gt;&amp;gt;&lt;div&gt;&lt;div&gt;&lt;b&gt;Server&lt;/b&gt;&lt;/div&gt;&lt;/div&gt;" style="text;html=1;align=center;verticalAlign=middle;whiteSpace=wrap;rounded=0;fontSize=16;" vertex="1" parent="1">
          <mxGeometry x="880" y="1120" width="175" height="30" as="geometry" />
        </mxCell>
        <mxCell id="sCBt6ju_RTLveq3hWhfe-35" value="" style="shape=cube;whiteSpace=wrap;html=1;boundedLbl=1;backgroundOutline=1;darkOpacity=0.05;darkOpacity2=0.1;size=10;fillColor=#fff2cc;strokeColor=#d6b656;" vertex="1" parent="1">
          <mxGeometry x="775" y="1170" width="365" height="650" as="geometry" />
        </mxCell>
        <mxCell id="sCBt6ju_RTLveq3hWhfe-36" value="&amp;lt;&amp;lt; OS &amp;gt;&amp;gt;&lt;div&gt;&lt;b&gt;Ubuntu 22.04&lt;/b&gt;&lt;/div&gt;" style="text;html=1;align=center;verticalAlign=middle;whiteSpace=wrap;rounded=0;fontSize=16;" vertex="1" parent="1">
          <mxGeometry x="890" y="1190" width="175" height="30" as="geometry" />
        </mxCell>
        <mxCell id="sCBt6ju_RTLveq3hWhfe-37" value="" style="shape=cube;whiteSpace=wrap;html=1;boundedLbl=1;backgroundOutline=1;darkOpacity=0.05;darkOpacity2=0.1;size=10;fillColor=#f8cecc;strokeColor=#b85450;" vertex="1" parent="1">
          <mxGeometry x="795" y="1230" width="325" height="580" as="geometry" />
        </mxCell>
        <mxCell id="sCBt6ju_RTLveq3hWhfe-38" value="&amp;lt;&amp;lt; orchestration&amp;nbsp;&amp;gt;&amp;gt;&lt;div&gt;&lt;b&gt;Kubernetes&lt;/b&gt;&lt;/div&gt;" style="text;html=1;align=center;verticalAlign=middle;whiteSpace=wrap;rounded=0;fontSize=16;" vertex="1" parent="1">
          <mxGeometry x="862.5" y="1250" width="210" height="40" as="geometry" />
        </mxCell>
        <mxCell id="sCBt6ju_RTLveq3hWhfe-39" value="" style="shape=cube;whiteSpace=wrap;html=1;boundedLbl=1;backgroundOutline=1;darkOpacity=0.05;darkOpacity2=0.1;size=10;" vertex="1" parent="1">
          <mxGeometry x="872.5" y="1320" width="190" height="130" as="geometry" />
        </mxCell>
        <mxCell id="sCBt6ju_RTLveq3hWhfe-40" value="&amp;lt;&amp;lt; pod &amp;gt;&amp;gt;&lt;div&gt;&lt;b&gt;web server&lt;/b&gt;&lt;/div&gt;" style="text;html=1;align=center;verticalAlign=middle;whiteSpace=wrap;rounded=0;fontSize=16;" vertex="1" parent="1">
          <mxGeometry x="882.5" y="1330" width="180" height="45" as="geometry" />
        </mxCell>
        <mxCell id="sCBt6ju_RTLveq3hWhfe-41" value="server.js" style="rounded=0;whiteSpace=wrap;html=1;" vertex="1" parent="1">
          <mxGeometry x="895" y="1390" width="157.5" height="50" as="geometry" />
        </mxCell>
        <mxCell id="sCBt6ju_RTLveq3hWhfe-42" style="edgeStyle=none;curved=0;rounded=0;orthogonalLoop=1;jettySize=auto;html=1;exitX=0;exitY=0;exitDx=250;exitDy=95;exitPerimeter=0;entryX=0;entryY=0;entryDx=0;entryDy=220;entryPerimeter=0;fontSize=12;startSize=8;endSize=8;strokeWidth=3;" edge="1" parent="1" source="sCBt6ju_RTLveq3hWhfe-29" target="sCBt6ju_RTLveq3hWhfe-33">
          <mxGeometry relative="1" as="geometry" />
        </mxCell>
        <mxCell id="sCBt6ju_RTLveq3hWhfe-43" value="HTTPS" style="edgeLabel;html=1;align=center;verticalAlign=middle;resizable=0;points=[];fontSize=12;strokeColor=#BAC8D3;fontColor=default;fillColor=#09555B;" connectable="0" vertex="1" parent="sCBt6ju_RTLveq3hWhfe-42">
          <mxGeometry x="-0.3185" relative="1" as="geometry">
            <mxPoint x="12" as="offset" />
          </mxGeometry>
        </mxCell>
        <mxCell id="sCBt6ju_RTLveq3hWhfe-44" value="" style="shape=cube;whiteSpace=wrap;html=1;boundedLbl=1;backgroundOutline=1;darkOpacity=0.05;darkOpacity2=0.1;size=10;fillColor=#dae8fc;strokeColor=#6c8ebf;" vertex="1" parent="1">
          <mxGeometry x="409.5" y="1694" width="190" height="86" as="geometry" />
        </mxCell>
        <mxCell id="sCBt6ju_RTLveq3hWhfe-45" value="&amp;lt;&amp;lt; mail server &amp;gt;&amp;gt;&lt;div&gt;&lt;b&gt;Mailgun&lt;/b&gt;&lt;/div&gt;" style="text;html=1;align=center;verticalAlign=middle;whiteSpace=wrap;rounded=0;fontSize=16;" vertex="1" parent="1">
          <mxGeometry x="424.5" y="1719" width="175" height="30" as="geometry" />
        </mxCell>
        <mxCell id="sCBt6ju_RTLveq3hWhfe-46" value="" style="shape=cube;whiteSpace=wrap;html=1;boundedLbl=1;backgroundOutline=1;darkOpacity=0.05;darkOpacity2=0.1;size=10;fillColor=#dae8fc;strokeColor=#6c8ebf;" vertex="1" parent="1">
          <mxGeometry x="409.5" y="1562" width="190" height="86" as="geometry" />
        </mxCell>
        <mxCell id="sCBt6ju_RTLveq3hWhfe-47" value="&amp;lt;&amp;lt; file storage &amp;gt;&amp;gt;&lt;div&gt;&lt;b&gt;S3&lt;/b&gt;&lt;/div&gt;" style="text;html=1;align=center;verticalAlign=middle;whiteSpace=wrap;rounded=0;fontSize=16;" vertex="1" parent="1">
          <mxGeometry x="424.5" y="1587" width="175" height="30" as="geometry" />
        </mxCell>
        <mxCell id="sCBt6ju_RTLveq3hWhfe-48" value="" style="shape=cube;whiteSpace=wrap;html=1;boundedLbl=1;backgroundOutline=1;darkOpacity=0.05;darkOpacity2=0.1;size=10;" vertex="1" parent="1">
          <mxGeometry x="875" y="1474" width="185" height="130" as="geometry" />
        </mxCell>
        <mxCell id="sCBt6ju_RTLveq3hWhfe-49" value="&amp;lt;&amp;lt; pod &amp;gt;&amp;gt;&lt;div&gt;&lt;b&gt;Meilisearch&lt;/b&gt;&lt;/div&gt;" style="text;html=1;align=center;verticalAlign=middle;whiteSpace=wrap;rounded=0;fontSize=16;" vertex="1" parent="1">
          <mxGeometry x="890" y="1490" width="170" height="39" as="geometry" />
        </mxCell>
        <mxCell id="sCBt6ju_RTLveq3hWhfe-50" value="Cargo.toml" style="rounded=0;whiteSpace=wrap;html=1;" vertex="1" parent="1">
          <mxGeometry x="897.5" y="1544" width="157.5" height="50" as="geometry" />
        </mxCell>
        <mxCell id="sCBt6ju_RTLveq3hWhfe-51" value="" style="shape=cylinder3;whiteSpace=wrap;html=1;boundedLbl=1;backgroundOutline=1;size=11.000000000000114;" vertex="1" parent="1">
          <mxGeometry x="870" y="1620" width="190" height="180" as="geometry" />
        </mxCell>
        <mxCell id="sCBt6ju_RTLveq3hWhfe-52" value="&amp;lt;&amp;lt; database server &amp;gt;&amp;gt;&lt;div&gt;&lt;b&gt;MySQL&lt;/b&gt;&lt;/div&gt;" style="text;html=1;align=center;verticalAlign=middle;whiteSpace=wrap;rounded=0;fontSize=16;" vertex="1" parent="1">
          <mxGeometry x="877.5" y="1650" width="175" height="30" as="geometry" />
        </mxCell>
        <mxCell id="sCBt6ju_RTLveq3hWhfe-53" value="&lt;span style=&quot;font-size: 16px;&quot;&gt;&amp;lt;&amp;lt; schema &amp;gt;&amp;gt;&lt;/span&gt;&lt;div style=&quot;font-size: 16px;&quot;&gt;&lt;b&gt;Users&lt;/b&gt;&lt;/div&gt;" style="rounded=0;whiteSpace=wrap;html=1;" vertex="1" parent="1">
          <mxGeometry x="900" y="1690" width="127.5" height="40" as="geometry" />
        </mxCell>
        <mxCell id="sCBt6ju_RTLveq3hWhfe-54" value="&lt;span style=&quot;font-size: 16px;&quot;&gt;&amp;lt;&amp;lt; schema &amp;gt;&amp;gt;&lt;/span&gt;&lt;div style=&quot;font-size: 16px;&quot;&gt;&lt;b&gt;Biomarkers&lt;/b&gt;&lt;/div&gt;" style="rounded=0;whiteSpace=wrap;html=1;" vertex="1" parent="1">
          <mxGeometry x="900" y="1740" width="127.5" height="40" as="geometry" />
        </mxCell>
        <mxCell id="sCBt6ju_RTLveq3hWhfe-55" style="edgeStyle=none;curved=1;rounded=0;orthogonalLoop=1;jettySize=auto;html=1;exitX=0;exitY=0;exitDx=130;exitDy=180;exitPerimeter=0;entryX=0;entryY=0;entryDx=90;entryDy=0;entryPerimeter=0;fontSize=12;startSize=8;endSize=8;strokeWidth=3;" edge="1" parent="1" source="sCBt6ju_RTLveq3hWhfe-29" target="sCBt6ju_RTLveq3hWhfe-46">
          <mxGeometry relative="1" as="geometry" />
        </mxCell>
        <mxCell id="sCBt6ju_RTLveq3hWhfe-56" style="edgeStyle=none;curved=0;rounded=0;orthogonalLoop=1;jettySize=auto;html=1;exitX=0;exitY=0;exitDx=0;exitDy=360;exitPerimeter=0;entryX=0;entryY=0;entryDx=190;entryDy=47.99999999999999;entryPerimeter=0;fontSize=12;startSize=8;endSize=8;strokeWidth=3;" edge="1" parent="1" source="sCBt6ju_RTLveq3hWhfe-33" target="sCBt6ju_RTLveq3hWhfe-46">
          <mxGeometry relative="1" as="geometry">
            <Array as="points">
              <mxPoint x="655" y="1460" />
              <mxPoint x="655" y="1540" />
              <mxPoint x="655" y="1610" />
            </Array>
          </mxGeometry>
        </mxCell>
        <mxCell id="sCBt6ju_RTLveq3hWhfe-57" value="..." style="text;html=1;align=center;verticalAlign=middle;whiteSpace=wrap;rounded=0;fontSize=18;fontColor=default;" vertex="1" parent="1">
          <mxGeometry x="880" y="1770" width="60" height="30" as="geometry" />
        </mxCell>
      </root>
    </mxGraphModel>
  </diagram>
</mxfile>
